<svg width="21" height="20" viewBox="0 0 21 20" fill="none" xmlns="http://www.w3.org/2000/svg">
<path d="M19.3 10.2084C19.3 9.55837 19.2417 8.93337 19.1333 8.33337H10.5V11.8792H15.4333C15.2208 13.025 14.575 13.9959 13.6042 14.6459V16.9459H16.5667C18.3 15.35 19.3 13 19.3 10.2084Z" fill="#4285F4"/>
<path d="M10.5 19.1667C12.975 19.1667 15.05 18.3459 16.5667 16.9459L13.6042 14.6459C12.7833 15.1959 11.7333 15.5209 10.5 15.5209C8.1125 15.5209 6.09167 13.9084 5.37083 11.7417H2.30833V14.1167C3.81667 17.1125 6.91667 19.1667 10.5 19.1667Z" fill="#34A853"/>
<path d="M5.37083 11.7416C5.1875 11.1916 5.08333 10.6041 5.08333 9.99997C5.08333 9.3958 5.1875 8.8083 5.37083 8.2583V5.8833H2.30833C1.66666 7.16068 1.33276 8.57048 1.33333 9.99997C1.33333 11.4791 1.6875 12.8791 2.30833 14.1166L5.37083 11.7416Z" fill="#FBBC05"/>
<path d="M10.5 4.47921C11.8458 4.47921 13.0542 4.94171 14.0042 5.85004L16.6333 3.22087C15.0458 1.74171 12.9708 0.833374 10.5 0.833374C6.91667 0.833374 3.81667 2.88754 2.30833 5.88337L5.37083 8.25837C6.09167 6.09171 8.1125 4.47921 10.5 4.47921Z" fill="#EA4335"/>
</svg>
